<svg xmlns="http://www.w3.org/2000/svg" viewBox="0 0 1920 500" fill="none"><path fill="#0B1419" d="M542 141h45v210h-45zm-243 0h45v196h-45zm448-45v45H587V96zm45 45v45h-45v-45zm0 165v45h-45v-45zm-448 46v45h-45v-45zm134-106v45H344v-45zm269 105v45H587v-45zm-224 0v45h-45v-45zm0-255v45H344V96zm559 0h250v175c0 69.036-55.96 125-125 125s-125-55.964-125-125zm520 0v45h-249V96zm0 254v45h-45v-45zm-249-209h45v254h-45zm102 0h45v254h-45zm102 0h45v194h-45zm-1079 0h45v210h-45zm524-44v45H814V97zm60 0v45h-45V97z"/><path fill="#0B1419" d="M915 141h45v255h-45z"/></svg>
